<?xml version="1.0" encoding="UTF-8" standalone="no"?>
<!-- Created with Inkscape (http://www.inkscape.org/) -->

<svg
   width="210mm"
   height="297mm"
   viewBox="0 0 210 297"
   version="1.1"
   id="svg1"
   xml:space="preserve"
   inkscape:version="1.3.2 (091e20ef0f, 2023-11-25, custom)"
   sodipodi:docname="logo.svg"
   xmlns:inkscape="http://www.inkscape.org/namespaces/inkscape"
   xmlns:sodipodi="http://sodipodi.sourceforge.net/DTD/sodipodi-0.dtd"
   xmlns="http://www.w3.org/2000/svg"
   xmlns:svg="http://www.w3.org/2000/svg"><sodipodi:namedview
     id="namedview1"
     pagecolor="#505050"
     bordercolor="#eeeeee"
     borderopacity="1"
     inkscape:showpageshadow="0"
     inkscape:pageopacity="0"
     inkscape:pagecheckerboard="0"
     inkscape:deskcolor="#505050"
     inkscape:document-units="mm"
     showguides="true"
     inkscape:zoom="2.4038899"
     inkscape:cx="298.68256"
     inkscape:cy="1096.972"
     inkscape:window-width="1920"
     inkscape:window-height="1024"
     inkscape:window-x="0"
     inkscape:window-y="0"
     inkscape:window-maximized="1"
     inkscape:current-layer="layer1" /><defs
     id="defs1" /><g
     inkscape:groupmode="layer"
     id="layer5"
     inkscape:label="art"><ellipse
       style="display:none;fill:#000000;stroke-width:0.292075"
       id="path2"
       cx="102.22409"
       cy="150.00999"
       rx="39.6875"
       ry="39.67783"
       inkscape:export-filename="logoFundoDark.png"
       inkscape:export-xdpi="96"
       inkscape:export-ydpi="96"
       sodipodi:insensitive="true" /><g
       id="g8"
       transform="matrix(1.0046069,0,0,1.0027758,-0.2881019,-0.30625807)"
       style="display:none"
       sodipodi:insensitive="true"><path
         id="circle31"
         style="opacity:1;fill:#ffffff;stroke-width:0.415873"
         d="m 102.04183,110.35192 a 39.567635,39.567635 0 0 0 -17.536394,4.17597 l 10.657748,0.0109 a 3.5558853,3.5558853 0 0 1 3.448368,-2.72335 3.5558853,3.5558853 0 0 1 3.555858,3.55585 3.5558853,3.5558853 0 0 1 -3.555858,3.55586 3.5558853,3.5558853 0 0 1 -3.306258,-2.2717 l -14.696778,0.009 a 39.567635,39.567635 0 0 0 -12.520166,13.0868 l 12.024073,0.0909 15.071431,-8.8563 21.922176,0.0222 a 3.5558853,3.5558853 0 0 1 3.44837,-2.72335 3.5558853,3.5558853 0 0 1 3.55585,3.55585 3.5558853,3.5558853 0 0 1 -3.55585,3.55586 3.5558853,3.5558853 0 0 1 -3.30626,-2.2717 l -21.571809,0.0129 -15.036292,8.77053 -13.610022,-0.21601 a 39.567635,39.567635 0 0 0 -4.493266,17.26716 l 5.231206,0.0491 11.71298,-6.92155 a 23.910032,23.910032 0 0 1 22.560893,-16.07757 23.910032,23.910032 0 0 1 22.56658,16.04088 l 11.77551,6.95824 5.16351,-0.0486 a 39.567635,39.567635 0 0 0 -4.40541,-17.1111 l -4.23334,-0.004 a 3.5558853,3.5558853 0 0 1 -3.44837,2.72334 3.5558853,3.5558853 0 0 1 -3.55585,-3.55585 3.5558853,3.5558853 0 0 1 3.55585,-3.55586 3.5558853,3.5558853 0 0 1 3.30626,2.2717 l 3.21583,-0.002 a 39.567635,39.567635 0 0 0 -33.94057,-19.37401 z m -3.428728,3.74861 a 1.2747298,1.2747298 0 0 0 -1.274341,1.27486 1.2747298,1.2747298 0 0 0 1.274341,1.27485 1.2747298,1.2747298 0 0 0 1.274858,-1.27485 1.2747298,1.2747298 0 0 0 -1.274858,-1.27486 z m 21.941298,6.46989 a 1.2747298,1.2747298 0 0 0 -1.27486,1.27486 1.2747298,1.2747298 0 0 0 1.27486,1.27485 1.2747298,1.2747298 0 0 0 1.27486,-1.27485 1.2747298,1.2747298 0 0 0 -1.27486,-1.27486 z m -18.51257,7.86618 a 21.483017,21.483017 0 0 0 -21.482923,21.48293 21.483017,21.483017 0 0 0 21.482923,21.48293 21.483017,21.483017 0 0 0 21.48345,-21.48293 21.483017,21.483017 0 0 0 -21.48345,-21.48293 z m 27.41848,1.22164 a 1.2747298,1.2747298 0 0 0 -1.27485,1.27485 1.2747298,1.2747298 0 0 0 1.27485,1.27434 1.2747298,1.2747298 0 0 0 1.27486,-1.27434 1.2747298,1.2747298 0 0 0 -1.27486,-1.27485 z m -36.388988,3.06337 h 0.278536 c 0.289281,0 0.522448,0.23265 0.522448,0.52194 v 2.78536 h 3.092835 v -2.78536 c 0,-0.28929 0.232648,-0.52194 0.521932,-0.52194 h 0.278536 c 0.289281,0 0.522448,0.23265 0.522448,0.52194 v 2.78536 h 3.092833 v -2.78536 c 0,-0.28929 0.23265,-0.52194 0.52193,-0.52194 h 0.27854 c 0.28928,0 0.52245,0.23265 0.52245,0.52194 v 2.78536 h 3.09283 v -2.78485 c 0,-0.28928 0.23266,-0.52245 0.52194,-0.52245 h 0.27853 c 0.28928,0 0.52245,0.23317 0.52245,0.52245 v 2.78485 h 3.09283 v -2.78485 c 0,-0.28928 0.23266,-0.52245 0.52194,-0.52245 h 0.27905 c 0.28928,0 0.52193,0.23317 0.52193,0.52245 v 2.78485 h 1.81436 c 1.42101,0 2.5647,1.14424 2.5647,2.56521 v 1.83245 h 2.80345 c 0.28929,0 0.52245,0.23265 0.52245,0.52193 v 0.27854 c 0,0.28928 -0.23316,0.52245 -0.52245,0.52245 h -2.80345 v 3.09283 h 2.80345 c 0.28929,0 0.52245,0.23265 0.52245,0.52193 v 0.27906 c 0,0.28928 -0.23316,0.52193 -0.52245,0.52193 h -2.80345 v 3.09283 h 2.80345 c 0.28929,0 0.52245,0.23317 0.52245,0.52245 v 0.27854 c 0,0.28928 -0.23316,0.52193 -0.52245,0.52193 h -2.80345 v 3.09283 h 2.80345 c 0.28929,0 0.52245,0.23317 0.52245,0.52245 v 0.27854 c 0,0.28928 -0.23316,0.52193 -0.52245,0.52193 h -2.80345 v 3.09284 h 2.80345 c 0.28929,0 0.52245,0.23316 0.52245,0.52244 v 0.27854 c 0,0.28928 -0.23316,0.52193 -0.52245,0.52193 h -2.80345 v 1.83296 c 0,1.42102 -1.14369,2.56471 -2.5647,2.56471 h -1.81436 v 2.78536 c 0,0.28928 -0.23265,0.52193 -0.52193,0.52193 h -0.27905 c -0.28928,0 -0.52194,-0.23265 -0.52194,-0.52193 v -2.78536 h -3.09283 v 2.78536 c 0,0.28928 -0.23317,0.52193 -0.52245,0.52193 h -0.27853 c -0.28928,0 -0.52194,-0.23265 -0.52194,-0.52193 v -2.78536 h -3.09283 v 2.78536 c 0,0.28928 -0.23317,0.52193 -0.52245,0.52193 h -0.27854 c -0.28928,0 -0.52193,-0.23265 -0.52193,-0.52193 v -2.78536 h -3.092833 v 2.78536 c 0,0.28928 -0.233167,0.52193 -0.522448,0.52193 h -0.278536 c -0.289284,0 -0.521932,-0.23265 -0.521932,-0.52193 v -2.78536 h -3.092835 v 2.78536 c 0,0.28928 -0.233167,0.52193 -0.522448,0.52193 h -0.278536 c -0.289281,0 -0.521932,-0.23265 -0.521932,-0.52193 v -2.78536 h -1.85105 c -1.421008,0 -2.565218,-1.14369 -2.565218,-2.56471 v -1.83296 h -2.766756 c -0.289283,0 -0.521932,-0.23265 -0.521932,-0.52193 v -0.27854 c 0,-0.28928 0.232649,-0.52244 0.521932,-0.52244 h 2.766756 v -3.09284 h -2.766756 c -0.289283,0 -0.521932,-0.23265 -0.521932,-0.52193 v -0.27854 c 0,-0.28928 0.232649,-0.52245 0.521932,-0.52245 h 2.766756 v -3.09283 h -2.766756 c -0.289283,0 -0.521932,-0.23265 -0.521932,-0.52193 v -0.27854 c 0,-0.28928 0.232649,-0.52245 0.521932,-0.52245 h 2.766756 v -3.09283 h -2.766756 c -0.289283,0 -0.521932,-0.23265 -0.521932,-0.52193 v -0.27906 c 0,-0.28928 0.232649,-0.52193 0.521932,-0.52193 h 2.766756 v -3.09283 h -2.766756 c -0.289283,0 -0.521932,-0.23317 -0.521932,-0.52245 v -0.27854 c 0,-0.28928 0.232649,-0.52193 0.521932,-0.52193 h 2.766756 v -1.83245 c 0,-1.42097 1.14421,-2.56521 2.565218,-2.56521 h 1.85105 v -2.78536 c 0,-0.28929 0.232651,-0.52194 0.521932,-0.52194 z m 32.383548,12.39046 a 23.910032,23.910032 0 0 1 0.49662,4.80746 23.910032,23.910032 0 0 1 -0.52245,4.92425 l 8.55555,-4.91495 z m -46.788871,0.0176 -8.498706,4.79919 8.530746,4.901 a 23.910032,23.910032 0 0 1 -0.566374,-4.9103 23.910032,23.910032 0 0 1 0.534334,-4.78989 z m -16.118912,6.00635 a 39.567635,39.567635 0 0 0 3.95428,16.0476 l 4.829163,0.005 a 3.5558853,3.5558853 0 0 1 3.448368,-2.72335 3.5558853,3.5558853 0 0 1 3.555855,3.55586 3.5558853,3.5558853 0 0 1 -3.555855,3.55585 3.5558853,3.5558853 0 0 1 -3.306258,-2.27169 l -3.811654,0.002 a 39.567635,39.567635 0 0 0 34.380844,20.18016 39.567635,39.567635 0 0 0 17.71003,-4.28915 l -10.53837,-0.0109 a 3.5558853,3.5558853 0 0 1 -3.44837,2.72283 3.5558853,3.5558853 0 0 1 -3.55585,-3.55533 3.5558853,3.5558853 0 0 1 3.55585,-3.55638 3.5558853,3.5558853 0 0 1 3.30626,2.27222 l 14.41927,-0.009 a 39.567635,39.567635 0 0 0 12.5057,-12.97336 l -10.00301,-0.0755 -15.07143,8.85631 -21.922174,-0.0222 a 3.5558853,3.5558853 0 0 1 -3.448369,2.72335 3.5558853,3.5558853 0 0 1 -3.555855,-3.55585 3.5558853,3.5558853 0 0 1 3.555855,-3.55586 3.5558853,3.5558853 0 0 1 3.306258,2.2717 l 21.571815,-0.0129 15.03629,-8.77053 11.59929,0.18397 a 39.567635,39.567635 0 0 0 4.46536,-16.99431 l -5.10046,0.0233 -11.87887,6.78873 a 23.910032,23.910032 0 0 1 -22.50922,15.8812 23.910032,23.910032 0 0 1 -22.520586,-15.92668 l -11.799279,-6.74325 z m 12.231811,15.61404 a 1.2747298,1.2747298 0 0 0 -1.274857,1.27434 1.2747298,1.2747298 0 0 0 1.274857,1.27486 1.2747298,1.2747298 0 0 0 1.274858,-1.27486 1.2747298,1.2747298 0 0 0 -1.274858,-1.27434 z m 10.772469,10.02316 a 1.2747298,1.2747298 0 0 0 -1.274857,1.27434 1.2747298,1.2747298 0 0 0 1.274857,1.27486 1.2747298,1.2747298 0 0 0 1.274858,-1.27486 1.2747298,1.2747298 0 0 0 -1.274858,-1.27434 z m 20.213753,6.27352 a 1.2747298,1.2747298 0 0 0 -1.27486,1.27486 1.2747298,1.2747298 0 0 0 1.27486,1.27485 1.2747298,1.2747298 0 0 0 1.27486,-1.27485 1.2747298,1.2747298 0 0 0 -1.27486,-1.27486 z" /><rect
         style="opacity:1;fill:#ffffff;stroke-width:0.280872;stroke-dasharray:none;paint-order:stroke markers fill"
         id="rect1"
         width="1.3229184"
         height="8.0410156"
         x="92.549385"
         y="136.02892"
         ry="0" /><rect
         style="opacity:1;fill:#ffffff;stroke-width:0.267109;stroke-dasharray:none;paint-order:stroke markers fill"
         id="rect2"
         width="1.3229184"
         height="7.2722883"
         x="105.79664"
         y="136.02892"
         ry="0" /><rect
         style="opacity:1;fill:#ffffff;stroke-width:0.267109;stroke-dasharray:none;paint-order:stroke markers fill"
         id="rect3"
         width="1.3229184"
         height="7.2722883"
         x="105.79664"
         y="156.53787"
         ry="0" /><rect
         style="opacity:1;fill:#ffffff;stroke-width:0.341256;stroke-dasharray:none;paint-order:stroke markers fill"
         id="rect4"
         width="1.3229184"
         height="11.870081"
         x="96.918419"
         y="151.94008"
         ry="0" /><rect
         style="opacity:1;fill:#ffffff;stroke-width:0.200813;stroke-dasharray:none;paint-order:stroke markers fill"
         id="rect5"
         width="1.3229184"
         height="4.1103354"
         x="144.84232"
         y="-115.91437"
         ry="0"
         transform="rotate(90)" /><rect
         style="opacity:1;fill:#ffffff;stroke-width:0.191019;stroke-dasharray:none;paint-order:stroke markers fill"
         id="rect6"
         width="1.3229184"
         height="3.7191832"
         x="153.67381"
         y="-115.91437"
         ry="0"
         transform="rotate(90)" /><rect
         style="opacity:1;fill:#ffffff;stroke-width:0.166688;stroke-dasharray:none;paint-order:stroke markers fill"
         id="rect7"
         width="1.3229184"
         height="2.8320694"
         x="144.84232"
         y="-90.965195"
         ry="0"
         transform="rotate(90)" /><rect
         style="opacity:1;fill:#ffffff;stroke-width:0.16035;stroke-dasharray:none;paint-order:stroke markers fill"
         id="rect8"
         width="1.3229184"
         height="2.6207933"
         x="153.67381"
         y="-90.753922"
         ry="0"
         transform="rotate(90)" /><path
         id="path1"
         style="font-size:19.8134px;font-family:Gugi;-inkscape-font-specification:Gugi;fill:#ffffff;stroke-width:1.86777"
         d="m 92.376274,141.92519 c -0.618536,0 -1.203782,0.0856 -1.755449,0.25735 -0.601817,0.18493 -0.902787,0.54828 -0.902787,1.08985 v 13.65136 c 0,0.63403 0.493184,0.95137 1.479496,0.95137 1.00303,0 1.504818,-0.31734 1.504818,-0.95137 v -10.69908 l 0.676961,-0.0594 5.441528,10.71924 c 0.100303,0.18492 0.233838,0.34333 0.40101,0.47542 0.183888,0.11888 0.376103,0.21784 0.576709,0.29714 0.21732,0.0661 0.44292,0.1121 0.67696,0.1385 0.23404,0.0396 0.46015,0.0594 0.67748,0.0594 0.28419,0 0.57655,-0.0262 0.87746,-0.0791 0.098,-0.0172 0.19131,-0.0401 0.28578,-0.0615 0.006,1e-5 0.011,5.2e-4 0.0171,5.2e-4 0.28835,0 0.4956,-0.11753 0.71572,-0.23203 0.0495,-0.0215 0.0945,-0.0447 0.13901,-0.0682 0.0194,-0.009 0.0374,-0.0192 0.0574,-0.0279 0.006,-0.003 0.0122,-0.008 0.0186,-0.0109 0.0552,-0.0273 0.10624,-0.0638 0.15451,-0.10542 0.005,-0.004 0.009,-0.008 0.014,-0.0119 0.0152,-0.0137 0.0306,-0.0266 0.045,-0.0413 0.20319,-0.18253 0.30851,-0.40476 0.30851,-0.66973 l 0.0579,-12.52223 h 5.2989 c 0.6254,0 1.06523,0.1386 1.31878,0.41599 0.27045,0.27739 0.40566,0.58135 0.40566,0.91157 v 2.00092 c 0,0.1453 -0.008,0.29085 -0.0253,0.43615 -0.0169,0.14529 -0.0763,0.27747 -0.17776,0.39635 -0.0845,0.10567 -0.22814,0.19769 -0.43099,0.27699 -0.20283,0.0793 -0.4901,0.12581 -0.86196,0.13901 -0.23665,-0.18493 -0.50707,-0.34333 -0.81132,-0.47542 -0.28735,-0.13213 -0.58303,-0.19844 -0.88728,-0.19844 -0.57469,0 -1.06503,0.15841 -1.47071,0.47542 -0.40567,0.31701 -0.60824,0.70713 -0.60824,1.16944 0,0.46231 0.20257,0.85191 0.60824,1.16892 0.40568,0.31701 0.89602,0.47542 1.47071,0.47542 0.67612,0 1.25064,-0.22476 1.72392,-0.67386 0.72683,0.0396 1.23401,0.20499 1.52136,0.49558 0.28735,0.27739 0.43098,0.56798 0.43098,0.87178 v 2.51613 c 0,0.34343 -0.1268,0.65382 -0.38034,0.93121 -0.25355,0.27739 -0.69287,0.41599 -1.31827,0.41599 h -3.47369 c -0.70991,0 -1.06453,0.33019 -1.06453,0.99064 0,0.3038 0.0758,0.54836 0.22789,0.73329 0.16903,0.18489 0.39737,0.2775 0.68472,0.2775 h 3.75222 c 0.47329,0 0.94679,-0.0663 1.42007,-0.19844 0.49019,-0.13209 1.00579,-0.3301 1.54668,-0.59428 1.08178,-0.51515 1.62264,-1.31414 1.62264,-2.39727 v -2.83342 c 0,-0.34343 -0.0679,-0.64044 -0.20309,-0.89141 -0.11832,-0.25097 -0.28721,-0.4693 -0.50695,-0.65423 -0.13522,-0.13209 -0.30411,-0.2509 -0.50694,-0.35657 -0.20284,-0.11888 -0.41433,-0.23074 -0.63407,-0.33641 0.32116,-0.19813 0.62525,-0.4625 0.9126,-0.79272 0.28735,-0.34342 0.4315,-0.77957 0.4315,-1.30793 v -2.23862 c 0,-0.54157 -0.10997,-1.01731 -0.3297,-1.42679 -0.20284,-0.40946 -0.52429,-0.73966 -0.96376,-0.99063 h 0.0253 c -0.43947,-0.22455 -0.91246,-0.40276 -1.41955,-0.53485 -0.49019,-0.13213 -0.95527,-0.19792 -1.39475,-0.19792 h -7.35252 c -0.98632,0 -1.59732,0.21759 -1.59732,0.85162 v 0.33693 10.38232 l -0.70228,0.0594 -5.416209,-10.73888 c -0.23404,-0.38306 -0.576997,-0.64047 -1.028361,-0.77256 -0.434646,-0.14535 -0.86915,-0.21807 -1.303796,-0.21807 z" /></g><ellipse
       style="fill:#000000;stroke-width:0.292075"
       id="ellipse1"
       cx="102.22408"
       cy="243.72784"
       rx="39.6875"
       ry="39.67783"
       inkscape:export-filename="logoFundoDark.png"
       inkscape:export-xdpi="96"
       inkscape:export-ydpi="96"
       sodipodi:insensitive="true" /><g
       id="g16"
       transform="matrix(1.0046069,0,0,1.0027758,-0.28810617,93.411594)"
       sodipodi:insensitive="true"><path
         id="path3"
         style="opacity:1;fill:#ffffff;stroke-width:0.415873"
         d="m 102.04183,110.35192 a 39.567635,39.567635 0 0 0 -17.536394,4.17597 l 10.657748,0.0109 a 3.5558853,3.5558853 0 0 1 3.448368,-2.72335 3.5558853,3.5558853 0 0 1 3.555858,3.55585 3.5558853,3.5558853 0 0 1 -3.555858,3.55586 3.5558853,3.5558853 0 0 1 -3.306258,-2.2717 l -14.696778,0.009 a 39.567635,39.567635 0 0 0 -12.520166,13.0868 l 12.024073,0.0909 15.071431,-8.8563 21.922176,0.0222 a 3.5558853,3.5558853 0 0 1 3.44837,-2.72335 3.5558853,3.5558853 0 0 1 3.55585,3.55585 3.5558853,3.5558853 0 0 1 -3.55585,3.55586 3.5558853,3.5558853 0 0 1 -3.30626,-2.2717 l -21.571809,0.0129 -15.036292,8.77053 -13.610022,-0.21601 a 39.567635,39.567635 0 0 0 -4.493266,17.26716 l 5.231206,0.0491 11.71298,-6.92155 a 23.910032,23.910032 0 0 1 22.560893,-16.07757 23.910032,23.910032 0 0 1 22.56658,16.04088 l 11.77551,6.95824 5.16351,-0.0486 a 39.567635,39.567635 0 0 0 -4.40541,-17.1111 l -4.23334,-0.004 a 3.5558853,3.5558853 0 0 1 -3.44837,2.72334 3.5558853,3.5558853 0 0 1 -3.55585,-3.55585 3.5558853,3.5558853 0 0 1 3.55585,-3.55586 3.5558853,3.5558853 0 0 1 3.30626,2.2717 l 3.21583,-0.002 a 39.567635,39.567635 0 0 0 -33.94057,-19.37401 z m -3.428728,3.74861 a 1.2747298,1.2747298 0 0 0 -1.274341,1.27486 1.2747298,1.2747298 0 0 0 1.274341,1.27485 1.2747298,1.2747298 0 0 0 1.274858,-1.27485 1.2747298,1.2747298 0 0 0 -1.274858,-1.27486 z m 21.941298,6.46989 a 1.2747298,1.2747298 0 0 0 -1.27486,1.27486 1.2747298,1.2747298 0 0 0 1.27486,1.27485 1.2747298,1.2747298 0 0 0 1.27486,-1.27485 1.2747298,1.2747298 0 0 0 -1.27486,-1.27486 z m -18.51257,7.86618 a 21.483017,21.483017 0 0 0 -21.482923,21.48293 21.483017,21.483017 0 0 0 21.482923,21.48293 21.483017,21.483017 0 0 0 21.48345,-21.48293 21.483017,21.483017 0 0 0 -21.48345,-21.48293 z m 27.41848,1.22164 a 1.2747298,1.2747298 0 0 0 -1.27485,1.27485 1.2747298,1.2747298 0 0 0 1.27485,1.27434 1.2747298,1.2747298 0 0 0 1.27486,-1.27434 1.2747298,1.2747298 0 0 0 -1.27486,-1.27485 z m -36.388988,3.06337 h 0.278536 c 0.289281,0 0.522448,0.23265 0.522448,0.52194 v 2.78536 h 3.092835 v -2.78536 c 0,-0.28929 0.232648,-0.52194 0.521932,-0.52194 h 0.278536 c 0.289281,0 0.522448,0.23265 0.522448,0.52194 v 2.78536 h 3.092833 v -2.78536 c 0,-0.28929 0.23265,-0.52194 0.52193,-0.52194 h 0.27854 c 0.28928,0 0.52245,0.23265 0.52245,0.52194 v 2.78536 h 3.09283 v -2.78485 c 0,-0.28928 0.23266,-0.52245 0.52194,-0.52245 h 0.27853 c 0.28928,0 0.52245,0.23317 0.52245,0.52245 v 2.78485 h 3.09283 v -2.78485 c 0,-0.28928 0.23266,-0.52245 0.52194,-0.52245 h 0.27905 c 0.28928,0 0.52193,0.23317 0.52193,0.52245 v 2.78485 h 1.81436 c 1.42101,0 2.5647,1.14424 2.5647,2.56521 v 1.83245 h 2.80345 c 0.28929,0 0.52245,0.23265 0.52245,0.52193 v 0.27854 c 0,0.28928 -0.23316,0.52245 -0.52245,0.52245 h -2.80345 v 3.09283 h 2.80345 c 0.28929,0 0.52245,0.23265 0.52245,0.52193 v 0.27906 c 0,0.28928 -0.23316,0.52193 -0.52245,0.52193 h -2.80345 v 3.09283 h 2.80345 c 0.28929,0 0.52245,0.23317 0.52245,0.52245 v 0.27854 c 0,0.28928 -0.23316,0.52193 -0.52245,0.52193 h -2.80345 v 3.09283 h 2.80345 c 0.28929,0 0.52245,0.23317 0.52245,0.52245 v 0.27854 c 0,0.28928 -0.23316,0.52193 -0.52245,0.52193 h -2.80345 v 3.09284 h 2.80345 c 0.28929,0 0.52245,0.23316 0.52245,0.52244 v 0.27854 c 0,0.28928 -0.23316,0.52193 -0.52245,0.52193 h -2.80345 v 1.83296 c 0,1.42102 -1.14369,2.56471 -2.5647,2.56471 h -1.81436 v 2.78536 c 0,0.28928 -0.23265,0.52193 -0.52193,0.52193 h -0.27905 c -0.28928,0 -0.52194,-0.23265 -0.52194,-0.52193 v -2.78536 h -3.09283 v 2.78536 c 0,0.28928 -0.23317,0.52193 -0.52245,0.52193 h -0.27853 c -0.28928,0 -0.52194,-0.23265 -0.52194,-0.52193 v -2.78536 h -3.09283 v 2.78536 c 0,0.28928 -0.23317,0.52193 -0.52245,0.52193 h -0.27854 c -0.28928,0 -0.52193,-0.23265 -0.52193,-0.52193 v -2.78536 h -3.092833 v 2.78536 c 0,0.28928 -0.233167,0.52193 -0.522448,0.52193 h -0.278536 c -0.289284,0 -0.521932,-0.23265 -0.521932,-0.52193 v -2.78536 h -3.092835 v 2.78536 c 0,0.28928 -0.233167,0.52193 -0.522448,0.52193 h -0.278536 c -0.289281,0 -0.521932,-0.23265 -0.521932,-0.52193 v -2.78536 h -1.85105 c -1.421008,0 -2.565218,-1.14369 -2.565218,-2.56471 v -1.83296 h -2.766756 c -0.289283,0 -0.521932,-0.23265 -0.521932,-0.52193 v -0.27854 c 0,-0.28928 0.232649,-0.52244 0.521932,-0.52244 h 2.766756 v -3.09284 h -2.766756 c -0.289283,0 -0.521932,-0.23265 -0.521932,-0.52193 v -0.27854 c 0,-0.28928 0.232649,-0.52245 0.521932,-0.52245 h 2.766756 v -3.09283 h -2.766756 c -0.289283,0 -0.521932,-0.23265 -0.521932,-0.52193 v -0.27854 c 0,-0.28928 0.232649,-0.52245 0.521932,-0.52245 h 2.766756 v -3.09283 h -2.766756 c -0.289283,0 -0.521932,-0.23265 -0.521932,-0.52193 v -0.27906 c 0,-0.28928 0.232649,-0.52193 0.521932,-0.52193 h 2.766756 v -3.09283 h -2.766756 c -0.289283,0 -0.521932,-0.23317 -0.521932,-0.52245 v -0.27854 c 0,-0.28928 0.232649,-0.52193 0.521932,-0.52193 h 2.766756 v -1.83245 c 0,-1.42097 1.14421,-2.56521 2.565218,-2.56521 h 1.85105 v -2.78536 c 0,-0.28929 0.232651,-0.52194 0.521932,-0.52194 z m 32.383548,12.39046 a 23.910032,23.910032 0 0 1 0.49662,4.80746 23.910032,23.910032 0 0 1 -0.52245,4.92425 l 8.55555,-4.91495 z m -46.788871,0.0176 -8.498706,4.79919 8.530746,4.901 a 23.910032,23.910032 0 0 1 -0.566374,-4.9103 23.910032,23.910032 0 0 1 0.534334,-4.78989 z m -16.118912,6.00635 a 39.567635,39.567635 0 0 0 3.95428,16.0476 l 4.829163,0.005 a 3.5558853,3.5558853 0 0 1 3.448368,-2.72335 3.5558853,3.5558853 0 0 1 3.555855,3.55586 3.5558853,3.5558853 0 0 1 -3.555855,3.55585 3.5558853,3.5558853 0 0 1 -3.306258,-2.27169 l -3.811654,0.002 a 39.567635,39.567635 0 0 0 34.380844,20.18016 39.567635,39.567635 0 0 0 17.71003,-4.28915 l -10.53837,-0.0109 a 3.5558853,3.5558853 0 0 1 -3.44837,2.72283 3.5558853,3.5558853 0 0 1 -3.55585,-3.55533 3.5558853,3.5558853 0 0 1 3.55585,-3.55638 3.5558853,3.5558853 0 0 1 3.30626,2.27222 l 14.41927,-0.009 a 39.567635,39.567635 0 0 0 12.5057,-12.97336 l -10.00301,-0.0755 -15.07143,8.85631 -21.922174,-0.0222 a 3.5558853,3.5558853 0 0 1 -3.448369,2.72335 3.5558853,3.5558853 0 0 1 -3.555855,-3.55585 3.5558853,3.5558853 0 0 1 3.555855,-3.55586 3.5558853,3.5558853 0 0 1 3.306258,2.2717 l 21.571815,-0.0129 15.03629,-8.77053 11.59929,0.18397 a 39.567635,39.567635 0 0 0 4.46536,-16.99431 l -5.10046,0.0233 -11.87887,6.78873 a 23.910032,23.910032 0 0 1 -22.50922,15.8812 23.910032,23.910032 0 0 1 -22.520586,-15.92668 l -11.799279,-6.74325 z m 12.231811,15.61404 a 1.2747298,1.2747298 0 0 0 -1.274857,1.27434 1.2747298,1.2747298 0 0 0 1.274857,1.27486 1.2747298,1.2747298 0 0 0 1.274858,-1.27486 1.2747298,1.2747298 0 0 0 -1.274858,-1.27434 z m 10.772469,10.02316 a 1.2747298,1.2747298 0 0 0 -1.274857,1.27434 1.2747298,1.2747298 0 0 0 1.274857,1.27486 1.2747298,1.2747298 0 0 0 1.274858,-1.27486 1.2747298,1.2747298 0 0 0 -1.274858,-1.27434 z m 20.213753,6.27352 a 1.2747298,1.2747298 0 0 0 -1.27486,1.27486 1.2747298,1.2747298 0 0 0 1.27486,1.27485 1.2747298,1.2747298 0 0 0 1.27486,-1.27485 1.2747298,1.2747298 0 0 0 -1.27486,-1.27486 z" /><rect
         style="opacity:1;fill:#ffffff;stroke-width:0.280872;stroke-dasharray:none;paint-order:stroke markers fill"
         id="rect9"
         width="1.3229184"
         height="8.0410156"
         x="92.549385"
         y="136.02892"
         ry="0" /><rect
         style="opacity:1;fill:#ffffff;stroke-width:0.267109;stroke-dasharray:none;paint-order:stroke markers fill"
         id="rect10"
         width="1.3229184"
         height="7.2722883"
         x="105.79664"
         y="136.02892"
         ry="0" /><rect
         style="opacity:1;fill:#ffffff;stroke-width:0.267109;stroke-dasharray:none;paint-order:stroke markers fill"
         id="rect11"
         width="1.3229184"
         height="7.2722883"
         x="105.79664"
         y="156.53787"
         ry="0" /><rect
         style="opacity:1;fill:#ffffff;stroke-width:0.341256;stroke-dasharray:none;paint-order:stroke markers fill"
         id="rect12"
         width="1.3229184"
         height="11.870081"
         x="96.918419"
         y="151.94008"
         ry="0" /><rect
         style="opacity:1;fill:#ffffff;stroke-width:0.200813;stroke-dasharray:none;paint-order:stroke markers fill"
         id="rect13"
         width="1.3229184"
         height="4.1103354"
         x="144.84232"
         y="-115.91437"
         ry="0"
         transform="rotate(90)" /><rect
         style="opacity:1;fill:#ffffff;stroke-width:0.191019;stroke-dasharray:none;paint-order:stroke markers fill"
         id="rect14"
         width="1.3229184"
         height="3.7191832"
         x="153.67381"
         y="-115.91437"
         ry="0"
         transform="rotate(90)" /><rect
         style="opacity:1;fill:#ffffff;stroke-width:0.166688;stroke-dasharray:none;paint-order:stroke markers fill"
         id="rect15"
         width="1.3229184"
         height="2.8320694"
         x="144.84232"
         y="-90.965195"
         ry="0"
         transform="rotate(90)" /><rect
         style="opacity:1;fill:#ffffff;stroke-width:0.16035;stroke-dasharray:none;paint-order:stroke markers fill"
         id="rect16"
         width="1.3229184"
         height="2.6207933"
         x="153.67381"
         y="-90.753922"
         ry="0"
         transform="rotate(90)" /><path
         id="path16"
         style="font-size:19.8134px;font-family:Gugi;-inkscape-font-specification:Gugi;fill:#ffffff;stroke-width:1.86777"
         d="m 92.376274,141.92519 c -0.618536,0 -1.203782,0.0856 -1.755449,0.25735 -0.601817,0.18493 -0.902787,0.54828 -0.902787,1.08985 v 13.65136 c 0,0.63403 0.493184,0.95137 1.479496,0.95137 1.00303,0 1.504818,-0.31734 1.504818,-0.95137 v -10.69908 l 0.676961,-0.0594 5.441528,10.71924 c 0.100303,0.18492 0.233838,0.34333 0.40101,0.47542 0.183888,0.11888 0.376103,0.21784 0.576709,0.29714 0.21732,0.0661 0.44292,0.1121 0.67696,0.1385 0.23404,0.0396 0.46015,0.0594 0.67748,0.0594 0.28419,0 0.57655,-0.0262 0.87746,-0.0791 0.098,-0.0172 0.19131,-0.0401 0.28578,-0.0615 0.006,1e-5 0.011,5.2e-4 0.0171,5.2e-4 0.28835,0 0.4956,-0.11753 0.71572,-0.23203 0.0495,-0.0215 0.0945,-0.0447 0.13901,-0.0682 0.0194,-0.009 0.0374,-0.0192 0.0574,-0.0279 0.006,-0.003 0.0122,-0.008 0.0186,-0.0109 0.0552,-0.0273 0.10624,-0.0638 0.15451,-0.10542 0.005,-0.004 0.009,-0.008 0.014,-0.0119 0.0152,-0.0137 0.0306,-0.0266 0.045,-0.0413 0.20319,-0.18253 0.30851,-0.40476 0.30851,-0.66973 l 0.0579,-12.52223 h 5.2989 c 0.6254,0 1.06523,0.1386 1.31878,0.41599 0.27045,0.27739 0.40566,0.58135 0.40566,0.91157 v 2.00092 c 0,0.1453 -0.008,0.29085 -0.0253,0.43615 -0.0169,0.14529 -0.0763,0.27747 -0.17776,0.39635 -0.0845,0.10567 -0.22814,0.19769 -0.43099,0.27699 -0.20283,0.0793 -0.4901,0.12581 -0.86196,0.13901 -0.23665,-0.18493 -0.50707,-0.34333 -0.81132,-0.47542 -0.28735,-0.13213 -0.58303,-0.19844 -0.88728,-0.19844 -0.57469,0 -1.06503,0.15841 -1.47071,0.47542 -0.40567,0.31701 -0.60824,0.70713 -0.60824,1.16944 0,0.46231 0.20257,0.85191 0.60824,1.16892 0.40568,0.31701 0.89602,0.47542 1.47071,0.47542 0.67612,0 1.25064,-0.22476 1.72392,-0.67386 0.72683,0.0396 1.23401,0.20499 1.52136,0.49558 0.28735,0.27739 0.43098,0.56798 0.43098,0.87178 v 2.51613 c 0,0.34343 -0.1268,0.65382 -0.38034,0.93121 -0.25355,0.27739 -0.69287,0.41599 -1.31827,0.41599 h -3.47369 c -0.70991,0 -1.06453,0.33019 -1.06453,0.99064 0,0.3038 0.0758,0.54836 0.22789,0.73329 0.16903,0.18489 0.39737,0.2775 0.68472,0.2775 h 3.75222 c 0.47329,0 0.94679,-0.0663 1.42007,-0.19844 0.49019,-0.13209 1.00579,-0.3301 1.54668,-0.59428 1.08178,-0.51515 1.62264,-1.31414 1.62264,-2.39727 v -2.83342 c 0,-0.34343 -0.0679,-0.64044 -0.20309,-0.89141 -0.11832,-0.25097 -0.28721,-0.4693 -0.50695,-0.65423 -0.13522,-0.13209 -0.30411,-0.2509 -0.50694,-0.35657 -0.20284,-0.11888 -0.41433,-0.23074 -0.63407,-0.33641 0.32116,-0.19813 0.62525,-0.4625 0.9126,-0.79272 0.28735,-0.34342 0.4315,-0.77957 0.4315,-1.30793 v -2.23862 c 0,-0.54157 -0.10997,-1.01731 -0.3297,-1.42679 -0.20284,-0.40946 -0.52429,-0.73966 -0.96376,-0.99063 h 0.0253 c -0.43947,-0.22455 -0.91246,-0.40276 -1.41955,-0.53485 -0.49019,-0.13213 -0.95527,-0.19792 -1.39475,-0.19792 h -7.35252 c -0.98632,0 -1.59732,0.21759 -1.59732,0.85162 v 0.33693 10.38232 l -0.70228,0.0594 -5.416209,-10.73888 c -0.23404,-0.38306 -0.576997,-0.64047 -1.028361,-0.77256 -0.434646,-0.14535 -0.86915,-0.21807 -1.303796,-0.21807 z" /></g></g><g
     inkscape:groupmode="layer"
     id="layer1"
     inkscape:label="contorno"><path
       style="opacity:0.5;fill:#ed272d;fill-opacity:0;fill-rule:evenodd;stroke:#ed272d;stroke-width:0.0132292;stroke-dasharray:none"
       d="m 88.251039,248.83857 v -1.3266 l 1.592213,0.008 0.0019,-7.53699 -1.59398,1e-5 5e-6,-1.3266 1.592213,0.004 v -1.57825 c -0.0053,-0.60823 0.36992,-0.91468 0.906946,-1.09287 0.630281,-0.19345 1.275903,-0.2779 1.937446,-0.24923 v -5.92148 h 1.329015 l -1.39e-4,6.197 c 0.320955,0.13322 0.634055,0.37412 0.840316,0.70896 l 5.441166,10.76869 0.70551,-0.0596 V 236.6846 c 7.1e-4,-0.3397 0.17295,-0.53733 0.40321,-0.65162 0.20953,-0.0988 0.4282,-0.14975 0.67887,-0.17734 0.17226,-0.0154 0.34588,-0.0259 0.5226,-0.025 h 3.38463 l 0.003,-6.01209 h 1.32901 v 6.01375 l 2.66964,-0.002 c 0.75403,0.001 1.54953,0.19421 2.35966,0.51335 0.15441,0.0608 0.29986,0.14795 0.4549,0.22145 0.7649,0.45646 1.18055,1.16287 1.28649,2.09097 h 2.06464 v 1.3266 l -2.06464,-1e-5 -0.002,1.35561 c -0.0162,0.27858 -0.0623,0.55788 -0.19068,0.83915 -0.16759,0.33544 -0.35973,0.49274 -0.51214,0.64938 -0.26199,0.26916 -0.49515,0.41328 -0.64556,0.51375 0.27949,0.13504 0.55446,0.28293 0.82458,0.44466 0.59619,0.42038 0.67234,0.64805 0.83097,0.90629 0.12473,0.27791 0.22016,0.56618 0.20403,0.89388 v 1.92786 l 1.55513,-0.001 v 1.32659 l -1.58139,9.1e-4 c -0.0371,0.19238 -0.0492,0.35007 -0.22538,0.73537 -0.0836,0.16675 -0.18221,0.3274 -0.314,0.47458 -0.12208,0.14461 -0.262,0.27593 -0.41975,0.39395 -0.17732,0.13846 -0.36718,0.24007 -0.5563,0.34384 -0.2731,0.13955 -0.54872,0.25539 -0.82471,0.36775 -0.49478,0.18491 -0.61658,0.21136 -0.81752,0.27144 -0.49484,0.1306 -0.73825,0.14851 -1.01783,0.18263 l -0.40879,0.0164 h -2.67405 l 0.004,6.05105 h -1.32902 v -6.07771 c -0.46285,-0.10325 -0.6845,-0.43954 -0.68764,-0.98694 0.007,-0.28393 0.0572,-0.43447 0.11819,-0.5508 0.0511,-0.0798 0.1043,-0.15931 0.19345,-0.2323 0.0732,-0.0657 0.16416,-0.10737 0.26234,-0.1393 0.069,-0.0185 0.12075,-0.0372 0.24146,-0.055 0.15052,-0.0189 0.34495,-0.0145 0.52822,-0.016 l 3.35863,-0.003 c 0.31287,-5.4e-4 0.60286,-0.0657 0.8729,-0.18712 0.19616,-0.0922 0.36022,-0.24663 0.49068,-0.46634 0.14392,-0.21779 0.18559,-0.45391 0.19969,-0.69496 v -2.52311 c -3.6e-4,-0.2337 -0.0881,-0.43697 -0.21629,-0.62614 -0.30751,-0.37187 -0.44622,-0.43121 -0.59206,-0.50376 -0.39524,-0.15743 -0.61362,-0.18045 -0.84838,-0.21593 l -0.3046,-0.0253 c -0.35196,0.33218 -0.67808,0.48305 -0.996,0.57648 -0.38868,0.10119 -0.66699,0.10719 -0.92247,0.0935 -0.33276,-0.0131 -0.59228,-0.0955 -0.83265,-0.1961 -0.39094,-0.17416 -0.56716,-0.36363 -0.74742,-0.5528 -0.0665,-0.0821 -0.14797,-0.17499 -0.22904,-0.3838 -0.0733,-0.18874 -0.0874,-0.36442 -0.0865,-0.37167 -0.006,-0.0242 -0.0114,-0.27486 0.0228,-0.41823 0.0408,-0.17065 0.10764,-0.32991 0.10764,-0.32991 0.13456,-0.28375 0.38768,-0.51055 0.61918,-0.66732 0.25359,-0.16581 0.48233,-0.25057 0.70068,-0.30146 0.28897,-0.0731 0.58761,-0.0809 0.89121,-0.0551 0.33495,0.0463 0.62849,0.17555 0.91533,0.3182 0.19748,0.1015 0.37576,0.21467 0.53182,0.34133 l 0.32971,-0.0226 c 0.18778,-0.024 0.36804,-0.0604 0.53622,-0.11675 0.17236,-0.0721 0.33658,-0.15015 0.43298,-0.27776 0.0957,-0.10136 0.15741,-0.23201 0.17858,-0.39745 0.0196,-0.17841 0.0246,-0.35876 0.0254,-0.53968 v -1.90415 c -0.007,-0.23045 -0.064,-0.45133 -0.19994,-0.65698 -0.12729,-0.18587 -0.27296,-0.34835 -0.46179,-0.45595 -0.18098,-0.0975 -0.37577,-0.14039 -0.57058,-0.18317 -0.19058,-0.0257 -0.34532,-0.0304 -0.50007,-0.0351 h -5.32331 l -0.0582,12.55699 -0.17428,0.52533 -0.30057,0.27783 -0.35491,0.18129 -0.3615,0.15078 -0.66149,0.11143 -1.35358,0.0234 -0.885849,-0.19292 -0.591526,-0.34674 -0.304419,-0.3925 -0.582174,-1.13829 3e-6,8.08317 h -1.329018 l -0.0013,-10.70553 -3.55405,-6.98834 -0.68008,0.0596 V 250.771 l -0.479975,0.77211 -0.637085,0.16308 -0.759018,0.002 -0.548172,-0.12042 -0.324913,-0.19623 -0.245211,-0.5283 -0.0037,-0.25789 0.0024,-1.76711 -1.594509,10e-6"
       id="path21"
       sodipodi:nodetypes="cccccccccccccccccccccccccscccccccccccccccccccccccccccccccccccccccccccccccscsccccccccccccccccccccccccccccccccccccccccccc" /></g></svg>
