<svg xmlns="http://www.w3.org/2000/svg" viewBox="0 0 128 128" role="img" aria-labelledby="title">
  <title>NBTech Mark</title>
  <defs>
    <linearGradient id="g" x1="0" y1="0" x2="1" y2="1">
      <stop offset="0" stop-color="#5f84ff"/>
      <stop offset="1" stop-color="#1fc9be"/>
    </linearGradient>
  </defs>
  <circle cx="64" cy="64" r="58" fill="#0b132b" stroke="url(#g)" stroke-width="8"/>
  <path d="M34 90V38h12l20 30V38h12v52H66L46 60v30H34z" fill="#e8eeff"/>
  <path d="M86 90V38h20c10 0 16 6 16 14 0 6-3 10-8 12 6 2 10 6 10 12 0 9-7 14-18 14H86zm12-30h8c4 0 6-2 6-5 0-3-2-5-6-5h-8v10zm0 20h9c4 0 7-2 7-6 0-3-3-5-7-5h-9v11z" fill="#e8eeff"/>
</svg>
